<?xml version="1.0" encoding="UTF-8"?>
<svg xmlns="http://www.w3.org/2000/svg" xmlns:xlink="http://www.w3.org/1999/xlink" width="312pt" height="130pt" viewBox="0 0 312 130" version="1.1">
<defs>
<clipPath id="clip1">
  <path d="M 0 0 L 102 0 L 102 130 L 0 130 Z M 0 0 "/>
</clipPath>
<clipPath id="clip2">
  <path d="M 66 20 L 66 120 L 36 130 L 36 30 Z M 0 0 L 30 10 L 30 110 L 0 100 Z M 72 0 L 102 10 L 102 110 L 72 100 Z M 72 0 "/>
</clipPath>
<clipPath id="clip3">
  <path d="M 123 25 L 310 25 L 310 109 L 123 109 Z M 123 25 "/>
</clipPath>
<clipPath id="clip4">
  <path d="M 147.144531 57 L 147.144531 49.484375 L 143.230469 49.484375 L 143.230469 53.308594 L 131.84375 53.308594 L 131.84375 42.824219 L 143.09375 42.824219 L 143.09375 39.136719 L 131.84375 39.136719 L 131.84375 28.921875 L 142.464844 28.921875 L 142.464844 32.609375 L 146.378906 32.609375 L 146.378906 25.230469 L 123.386719 25.230469 L 123.386719 28.695313 L 127.34375 28.695313 L 127.34375 53.488281 L 123.386719 53.488281 L 123.386719 57 Z M 157.046875 57 L 161.546875 49.664063 C 162.039063 48.898438 162.355469 48.179688 162.355469 48.179688 L 162.445313 48.179688 C 162.445313 48.179688 162.804688 48.945313 163.253906 49.621094 L 167.84375 57 L 173.648438 57 L 173.648438 53.625 L 170.589844 53.625 L 164.964844 45.210938 L 170.050781 37.605469 L 173.515625 37.605469 L 173.515625 34.230469 L 167.484375 34.230469 L 163.34375 40.84375 C 162.894531 41.566406 162.535156 42.332031 162.535156 42.332031 L 162.445313 42.332031 L 162.429688 42.292969 C 162.355469 42.128906 162.035156 41.433594 161.679688 40.84375 L 157.628906 34.230469 L 151.238281 34.230469 L 151.238281 37.605469 L 154.929688 37.605469 L 159.96875 45.253906 L 154.523438 53.625 L 151.105469 53.625 L 151.105469 57 Z M 184.226563 57.539063 C 189.761719 57.539063 191.738281 52.726563 191.738281 52.726563 L 191.828125 52.726563 C 191.828125 52.726563 191.648438 53.308594 191.648438 54.210938 L 191.648438 54.523438 C 191.648438 56.011719 192.460938 57 194.484375 57 L 199.03125 57 L 199.03125 53.625 L 196.734375 53.625 C 196.105469 53.625 195.746094 53.308594 195.746094 52.636719 L 195.746094 42.464844 C 195.746094 36.707031 192.683594 33.691406 186.878906 33.691406 C 181.570313 33.691406 178.238281 36.390625 178.238281 36.390625 L 179.996094 39.496094 C 179.996094 39.496094 182.921875 37.289063 186.519531 37.289063 C 189.308594 37.289063 191.378906 38.550781 191.378906 42.148438 L 191.378906 43.003906 L 189.941406 43.003906 C 186.160156 43.003906 176.664063 43.5 176.664063 50.65625 C 176.664063 55.335938 180.445313 57.539063 184.226563 57.539063 Z M 185.171875 54.164063 C 182.558594 54.164063 181.074219 52.320313 181.074219 50.292969 C 181.074219 45.929688 188.230469 45.839844 190.300781 45.839844 L 191.425781 45.839844 L 191.425781 46.785156 C 191.425781 50.207031 189.039063 54.164063 185.171875 54.164063 Z M 213.835938 57 L 213.835938 53.625 L 210.234375 53.625 L 210.234375 46.695313 C 210.234375 42.238281 212.753906 37.648438 217.074219 37.648438 C 220.507813 37.648438 221.015625 40.273438 221.035156 43.167969 L 221.035156 57 L 228.953125 57 L 228.953125 53.625 L 225.398438 53.625 L 225.398438 46.515625 C 225.398438 42.015625 227.828125 37.648438 232.105469 37.648438 C 235.445313 37.648438 236.082031 40.054688 236.109375 43.148438 L 236.109375 57 L 244.074219 57 L 244.074219 53.625 L 240.476563 53.625 L 240.476563 42.417969 C 240.476563 36.613281 238.089844 33.691406 233.050781 33.691406 C 229.316406 33.691406 226.164063 36.210938 224.90625 39.042969 L 224.816406 39.042969 C 224.050781 35.355469 221.800781 33.691406 218.15625 33.691406 C 214.464844 33.691406 211.179688 36.523438 210.054688 39.226563 L 209.964844 39.226563 C 209.964844 39.226563 210.101563 38.640625 210.101563 37.917969 L 210.101563 36.75 C 210.101563 35.085938 209.15625 34.230469 207.21875 34.230469 L 202.089844 34.230469 L 202.089844 37.605469 L 204.878906 37.605469 C 205.511719 37.605469 205.871094 37.917969 205.871094 38.550781 L 205.871094 53.625 L 202.316406 53.625 L 202.316406 57 Z M 257.933594 66 L 257.933594 62.625 L 254.335938 62.625 L 254.335938 55.648438 C 254.335938 54.480469 254.199219 53.667969 254.199219 53.667969 L 254.289063 53.667969 C 254.289063 53.667969 256.359375 57.539063 261.355469 57.539063 C 267.296875 57.539063 271.660156 52.859375 271.660156 45.613281 C 271.660156 38.550781 267.789063 33.691406 261.671875 33.691406 C 255.910156 33.691406 254.019531 37.964844 254.019531 37.964844 L 253.929688 37.964844 C 253.929688 37.964844 254.019531 37.378906 254.019531 36.660156 L 254.019531 36.480469 C 254.019531 35.128906 253.253906 34.230469 251.230469 34.230469 L 246.191406 34.230469 L 246.191406 37.605469 L 248.980469 37.605469 C 249.609375 37.605469 249.96875 37.917969 249.96875 38.59375 L 249.96875 62.625 L 246.414063 62.625 L 246.414063 66 Z M 260.679688 53.761719 C 256.449219 53.761719 254.246094 49.753906 254.246094 45.707031 C 254.246094 39.898438 257.394531 37.515625 260.769531 37.515625 C 264.59375 37.515625 267.25 40.710938 267.25 45.660156 C 267.25 50.835938 264.28125 53.761719 260.679688 53.761719 Z M 285.304688 57.046875 L 285.339844 57.042969 L 285.386719 53.445313 C 285.386719 53.445313 284.890625 53.488281 284.171875 53.488281 C 282.191406 53.488281 281.738281 52.183594 281.738281 50.25 L 281.738281 25.230469 L 273.59375 25.230469 L 273.59375 28.605469 L 277.375 28.605469 L 277.375 50.519531 C 277.375 55.832031 280.164063 57.136719 283.40625 57.136719 C 284.316406 57.136719 285.128906 57.066406 285.304688 57.046875 Z M 300.460938 57.539063 C 305.90625 57.539063 309.324219 54.390625 309.324219 54.390625 L 307.523438 51.195313 C 307.523438 51.195313 304.691406 53.761719 300.730469 53.761719 C 296.679688 53.761719 293.125 51.058594 292.855469 46.019531 L 309.503906 46.019531 C 309.503906 46.019531 309.640625 44.941406 309.640625 44.355469 C 309.640625 38.460938 306.265625 33.691406 299.785156 33.691406 C 293.304688 33.691406 288.398438 38.371094 288.398438 45.613281 C 288.398438 52.363281 293.304688 57.539063 300.460938 57.539063 Z M 305.140625 43.230469 L 293.035156 43.230469 C 293.664063 39.40625 296.363281 37.15625 299.695313 37.15625 C 302.574219 37.15625 305.003906 39.226563 305.140625 43.230469 Z M 135.851563 99 L 135.851563 95.488281 L 131.84375 95.488281 L 131.84375 87.074219 L 138.28125 87.074219 C 140.035156 87.074219 141.566406 86.941406 143.050781 86.398438 C 146.695313 85.140625 149.035156 81.539063 149.035156 77.085938 C 149.035156 72.855469 146.921875 69.480469 143.636719 68.085938 C 142.058594 67.363281 140.125 67.230469 138.191406 67.230469 L 123.386719 67.230469 L 123.386719 70.695313 L 127.34375 70.695313 L 127.34375 95.488281 L 123.386719 95.488281 L 123.386719 99 Z M 137.738281 83.386719 L 131.84375 83.386719 L 131.84375 70.917969 L 137.785156 70.917969 C 139.316406 70.917969 140.664063 71.144531 141.65625 71.683594 C 143.453125 72.628906 144.488281 74.519531 144.488281 77.085938 C 144.488281 79.832031 143.320313 81.855469 141.296875 82.753906 C 140.304688 83.160156 139.179688 83.386719 137.738281 83.386719 Z M 163.796875 99 L 163.796875 95.625 L 160.421875 95.625 L 160.421875 89.59375 C 160.421875 85.140625 162.488281 80.234375 167.351563 80.234375 C 168.070313 80.234375 168.609375 80.371094 168.609375 80.371094 L 168.609375 76.050781 C 168.609375 76.050781 168.070313 75.960938 167.484375 75.960938 C 163.976563 75.960938 161.320313 78.570313 160.285156 81.898438 L 160.195313 81.898438 C 160.195313 81.898438 160.285156 81.226563 160.285156 80.324219 L 160.285156 78.886719 C 160.285156 77.039063 159.339844 76.230469 157.359375 76.230469 L 152.230469 76.230469 L 152.230469 79.605469 L 155.066406 79.605469 C 155.695313 79.605469 156.054688 79.917969 156.054688 80.59375 L 156.054688 95.625 L 152.636719 95.625 L 152.636719 99 Z M 183.28125 99.539063 C 190.074219 99.539063 195.566406 94.5 195.566406 87.570313 C 195.566406 80.683594 190.074219 75.691406 183.28125 75.691406 C 176.484375 75.691406 170.996094 80.683594 170.996094 87.570313 C 170.996094 94.5 176.484375 99.539063 183.28125 99.539063 Z M 183.28125 95.761719 C 178.960938 95.761719 175.449219 92.339844 175.449219 87.570313 C 175.449219 82.84375 178.960938 79.46875 183.28125 79.46875 C 187.554688 79.46875 191.109375 82.84375 191.109375 87.570313 C 191.109375 92.339844 187.554688 95.761719 183.28125 95.761719 Z M 206.816406 71.683594 L 206.816406 67.230469 L 202.226563 67.230469 L 202.226563 71.683594 Z M 206.679688 99.675781 L 206.679688 76.230469 L 198.488281 76.230469 L 198.488281 79.605469 L 202.316406 79.605469 L 202.316406 99.539063 C 202.316406 103.988281 199.253906 104.644531 197.5625 104.667969 L 197.453125 104.667969 C 196.871094 104.667969 196.464844 104.625 196.464844 104.625 L 196.464844 108.179688 C 196.464844 108.179688 197.050781 108.269531 197.949219 108.269531 C 200.785156 108.269531 206.679688 107.28125 206.679688 99.675781 Z M 224.410156 99.539063 C 229.855469 99.539063 233.273438 96.390625 233.273438 96.390625 L 231.476563 93.195313 C 231.476563 93.195313 228.640625 95.761719 224.679688 95.761719 C 220.628906 95.761719 217.074219 93.058594 216.804688 88.019531 L 233.453125 88.019531 C 233.453125 88.019531 233.589844 86.941406 233.589844 86.355469 C 233.589844 80.460938 230.214844 75.691406 223.734375 75.691406 C 217.253906 75.691406 212.351563 80.371094 212.351563 87.613281 C 212.351563 94.363281 217.253906 99.539063 224.410156 99.539063 Z M 229.089844 85.230469 L 216.984375 85.230469 C 217.613281 81.40625 220.316406 79.15625 223.644531 79.15625 C 226.523438 79.15625 228.953125 81.226563 229.089844 85.230469 Z M 249.566406 99.539063 C 254.378906 99.539063 257.664063 96.976563 258.699219 96.03125 L 257.035156 92.835938 C 256.226563 93.464844 253.613281 95.761719 249.746094 95.761719 C 245.378906 95.761719 241.734375 92.746094 241.734375 87.570313 C 241.734375 82.710938 244.886719 79.46875 249.476563 79.46875 C 251.5 79.46875 254.378906 80.324219 254.378906 82.082031 L 254.378906 83.65625 L 258.25 83.65625 L 258.25 80.863281 C 258.25 76.949219 252.714844 75.691406 249.339844 75.691406 C 242.546875 75.691406 237.28125 80.683594 237.28125 87.660156 C 237.28125 94.996094 242.996094 99.539063 249.566406 99.539063 Z M 273.683594 99.179688 C 274.628906 99.179688 275.261719 99.089844 275.261719 99.089844 L 275.261719 95.445313 C 275.261719 95.445313 274.921875 95.484375 274.378906 95.488281 L 274.226563 95.488281 C 272.515625 95.488281 269.363281 94.90625 269.363281 90.269531 L 269.363281 79.605469 L 274.808594 79.605469 L 274.808594 76.230469 L 269.363281 76.230469 L 269.363281 69.976563 L 265.089844 69.976563 L 265.089844 76.230469 L 261.175781 76.230469 L 261.175781 79.605469 L 265 79.605469 L 265 90.675781 C 265 98.28125 270.804688 99.179688 273.683594 99.179688 Z M 273.683594 99.179688 "/>
</clipPath>
</defs>
<g id="surface1">
<g clip-path="url(#clip1)" clip-rule="nonzero">
<g clip-path="url(#clip2)" clip-rule="evenodd">
<path style=" stroke:none;fill-rule:nonzero;fill:rgb(255%,255%,255%);fill-opacity:1;" d="M -5 135 L 107 135 L 107 -5 L -5 -5 Z M -5 135 "/>
</g>
</g>
<g clip-path="url(#clip3)" clip-rule="nonzero">
<g clip-path="url(#clip4)" clip-rule="nonzero">
<path style=" stroke:none;fill-rule:nonzero;fill:rgb(255%,255%,255%);fill-opacity:1;" d="M 118.386719 113.269531 L 314.640625 113.269531 L 314.640625 20.230469 L 118.386719 20.230469 Z M 118.386719 113.269531 "/>
</g>
</g>
</g>
</svg>
